<?xml version="1.0" encoding="UTF-8"?>
<svg width="1200pt" height="1200pt" version="1.1" viewBox="0 0 1200 1200" xmlns="http://www.w3.org/2000/svg">
 <path d="m384 276.05v311.9c0 119.38 96.672 216.05 216 216.05 119.31 0 216-96.715 216-216.05v-311.9c0-119.38-96.672-216.05-216-216.05-119.31 0-216 96.715-216 216.05zm-48 0c0-145.83 118.16-264.05 264-264.05 145.8 0 264 118.12 264 264.05v311.9c0 145.83-118.16 264.05-264 264.05-145.8 0-264-118.12-264-264.05z" fill="#141414" fill-rule="evenodd"/>
 <path d="m576 204.1c0-13.312 10.652-24.102 24-24.102 13.254 0 24 10.824 24 24.102v95.797c0 13.312-10.652 24.102-24 24.102-13.254 0-24-10.824-24-24.102z" fill="#141414" fill-rule="evenodd"/>
 <path d="m600 1142.1 103.03-103.03c9.3711-9.375 24.566-9.375 33.938 0 9.375 9.3711 9.375 24.566 0 33.938l-120 120c-4.6836 4.6875-10.828 7.0312-16.969 7.0312s-12.285-2.3438-16.969-7.0312l-120-120c-9.375-9.3711-9.375-24.566 0-33.938 9.3711-9.375 24.566-9.375 33.938 0z" fill="#141414" fill-rule="evenodd"/>
 <path d="m600 986.06 103.03-103.03c9.3711-9.375 24.566-9.375 33.938 0 9.375 9.3711 9.375 24.566 0 33.938l-120 120c-4.6836 4.6875-10.828 7.0312-16.969 7.0312s-12.285-2.3438-16.969-7.0312l-120-120c-9.375-9.3711-9.375-24.566 0-33.938 9.3711-9.375 24.566-9.375 33.938 0z" fill="#141414" fill-rule="evenodd"/>
</svg>
