<?xml version="1.0" encoding="UTF-8"?>
<svg id="Layer_1" xmlns="http://www.w3.org/2000/svg" version="1.1" viewBox="0 0 1200 1200">
  <!-- Generator: Adobe Illustrator 29.5.0, SVG Export Plug-In . SVG Version: 2.1.0 Build 137)  -->
  <defs>
    <style>
      .st0 {
        fill: #141414;
        fill-rule: evenodd;
      }
    </style>
  </defs>
  <path class="st0" d="M412.4,1148.1c-54.3,0-98.4-44.1-98.4-98.4V150c0-54.3,44.1-98.4,98.4-98.4h0c54.3,0,98.4,44.1,98.4,98.4v899.7c0,54.3-44.1,98.4-98.4,98.4h0Z"/>
  <path class="st0" d="M786.9,1148.1c-26,0-51-10.3-69.3-28.7s-28.7-43.3-28.7-69.3V150c0-54.3,44.1-98.4,98.4-98.4h0c54.3,0,98.4,44.1,98.4,98.4v899.4c0,54.5-44.2,98.7-98.7,98.7h0Z"/>
  <metadata>
    <sfw xmlns="http://ns.adobe.com/SaveForWeb/1.0/">
      <slices/>
      <sliceSourceBounds x="313.97" y="51.89" width="571.7" height="1096.54" bottomLeftOrigin="true"/>
    </sfw>
  </metadata>
</svg>