<?xml version="1.0" encoding="UTF-8"?>
<svg id="Layer_1" xmlns="http://www.w3.org/2000/svg" version="1.1" viewBox="0 0 1200 1200">
  <!-- Generator: Adobe Illustrator 29.5.0, SVG Export Plug-In . SVG Version: 2.1.0 Build 137)  -->
  <defs>
    <style>
      .st0 {
        fill: #141414;
        fill-rule: evenodd;
      }
    </style>
  </defs>
  <path class="st0" d="M385.9,158.6c64.9-30.7,137.4-47.8,214-47.8,277,0,501.9,224.9,501.9,501.9s-224.9,501.8-501.8,501.8S98,889.6,98,612.6s21.3-165.6,58.9-236c6.1-11.4,20.3-15.7,31.7-9.6s15.7,20.3,9.6,31.7c-34.1,63.8-53.4,136.6-53.4,213.9,0,251.1,203.9,455,455,455s455-203.9,455-455-203.9-455-455-455-127.3,13.8-183.4,38.5l32.8,40.3c5.5,6.8,6.8,16.1,3.3,24.1-3.5,8-11.2,13.4-19.9,14l-159,10.9c-7.6.5-15-2.7-19.8-8.6-4.8-5.9-6.4-13.8-4.4-21.1l42.9-153.5c2.4-8.4,9.2-14.8,17.8-16.6,8.6-1.8,17.4,1.4,22.9,8.1l52.7,64.7h0ZM741.9,554.1c19.6,13,31.3,35,31.3,58.5s-11.7,45.4-31.3,58.5l-206,137.4c-21.6,14.4-49.3,15.7-72.2,3.5-22.9-12.2-37.1-36.1-37.1-62v-274.7c0-25.9,14.3-49.7,37.1-62,22.9-12.2,50.6-10.9,72.2,3.5l206,137.4Z"/>
  <metadata>
    <sfw xmlns="http://ns.adobe.com/SaveForWeb/1.0/">
      <slices/>
      <sliceSourceBounds x="97.97" y="85.57" width="1003.7" height="1029.21" bottomLeftOrigin="true"/>
    </sfw>
  </metadata>
</svg>